<?xml version="1.0" encoding="UTF-8" standalone="no" ?>
<!DOCTYPE svg PUBLIC "-//W3C//DTD SVG 1.1//EN" "http://www.w3.org/Graphics/SVG/1.1/DTD/svg11.dtd">
<svg xmlns="http://www.w3.org/2000/svg" xmlns:xlink="http://www.w3.org/1999/xlink" version="1.1" width="640" height="640" viewBox="0 0 640 640" xml:space="preserve">
<desc>Created with Fabric.js 4.6.0</desc>
<defs>
</defs>
<g transform="matrix(0.63 0.36 -0.36 0.63 469.78 550.04)" id="UmP92TUCndK82R_KA5iaf"  >
<path style="stroke: rgb(58,122,213); stroke-width: 0; stroke-dasharray: none; stroke-linecap: butt; stroke-dashoffset: 0; stroke-linejoin: miter; stroke-miterlimit: 4; fill: rgb(41,161,91); fill-rule: nonzero; opacity: 1;" vector-effect="non-scaling-stroke"  transform=" translate(0, 0)" d="M -86.26087 -86.26087 L 86.26087 -86.26087 L 86.26087 86.26087 L -86.26087 86.26087 z" stroke-linecap="round" />
</g>
<g transform="matrix(0.63 0.36 -0.36 0.63 170.22 378.2)" id="ThW8dUr_4MsXwpGKcRzMk"  >
<path style="stroke: rgb(58,122,213); stroke-width: 0; stroke-dasharray: none; stroke-linecap: butt; stroke-dashoffset: 0; stroke-linejoin: miter; stroke-miterlimit: 4; fill: rgb(41,161,91); fill-rule: nonzero; opacity: 1;" vector-effect="non-scaling-stroke"  transform=" translate(0, 0)" d="M -86.26087 -86.26087 L 86.26087 -86.26087 L 86.26087 86.26087 L -86.26087 86.26087 z" stroke-linecap="round" />
</g>
<g transform="matrix(0.36 0.63 -0.63 0.36 468.25 377.57)" id="jhb7gP-YA5IAOrI2mGPwP"  >
<path style="stroke: rgb(58,122,213); stroke-width: 0; stroke-dasharray: none; stroke-linecap: butt; stroke-dashoffset: 0; stroke-linejoin: miter; stroke-miterlimit: 4; fill: rgb(41,161,91); fill-rule: nonzero; opacity: 1;" vector-effect="non-scaling-stroke"  transform=" translate(0, 0)" d="M -86.26087 -86.26087 L 86.26087 -86.26087 L 86.26087 86.26087 L -86.26087 86.26087 z" stroke-linecap="round" />
</g>
<g transform="matrix(0.39 -0.68 0.68 0.39 319.53 464.4)" id="7AKQyIBsGkgXS2-2AEz1t"  >
<path style="stroke: rgb(6,7,14); stroke-width: 10; stroke-dasharray: none; stroke-linecap: butt; stroke-dashoffset: 0; stroke-linejoin: miter; stroke-miterlimit: 4; fill: rgb(2,161,68); fill-rule: nonzero; opacity: 1;" vector-effect="non-scaling-stroke"  transform=" translate(-156.16, -135.23)" d="M 234.2332 0 L 312.31136000000004 135.23478 L 234.23320000000004 270.46956 L 78.07817000000003 270.46956 L 0.000010000000031595846 135.23478 L 78.07817000000003 0 z" stroke-linecap="round" />
</g>
<g transform="matrix(0.72 0 0 1.79 320.55 162.77)" id="AMwE7HNaNPBOOzsw-L4dp"  >
<path style="stroke: rgb(6,7,14); stroke-width: 10; stroke-dasharray: none; stroke-linecap: butt; stroke-dashoffset: 0; stroke-linejoin: miter; stroke-miterlimit: 4; fill: rgb(2,161,68); fill-rule: nonzero; opacity: 1;" vector-effect="non-scaling-stroke"  transform=" translate(0, 0)" d="M -86.26087 -86.26087 L 86.26087 -86.26087 L 86.26087 86.26087 L -86.26087 86.26087 z" stroke-linecap="round" />
</g>
</svg>